<svg xmlns="http://www.w3.org/2000/svg" xmlns:xlink="http://www.w3.org/1999/xlink" width="128" zoomAndPan="magnify" viewBox="0 0 96 95.999999" height="128" preserveAspectRatio="xMidYMid meet" version="1.0"><defs><g/><clipPath id="d8ff19353e"><path d="M 2.84375 3.507812 L 93.214844 3.507812 L 93.214844 92.492188 L 2.84375 92.492188 Z M 2.84375 3.507812 " clip-rule="nonzero"/></clipPath><clipPath id="9eb649cc6b"><path d="M 12.59375 3.507812 L 83.40625 3.507812 C 88.789062 3.507812 93.15625 7.875 93.15625 13.257812 L 93.15625 82.742188 C 93.15625 88.125 88.789062 92.492188 83.40625 92.492188 L 12.59375 92.492188 C 7.210938 92.492188 2.84375 88.125 2.84375 82.742188 L 2.84375 13.257812 C 2.84375 7.875 7.210938 3.507812 12.59375 3.507812 Z M 12.59375 3.507812 " clip-rule="nonzero"/></clipPath><clipPath id="798a60f209"><path d="M 18.628906 9.601562 L 77.128906 9.601562 L 77.128906 63.601562 L 18.628906 63.601562 Z M 18.628906 9.601562 " clip-rule="nonzero"/></clipPath></defs><g clip-path="url(#d8ff19353e)"><g clip-path="url(#9eb649cc6b)"><path fill="#00bf63" d="M 2.84375 3.507812 L 93.214844 3.507812 L 93.214844 92.492188 L 2.84375 92.492188 Z M 2.84375 3.507812 " fill-opacity="1" fill-rule="nonzero"/></g></g><g clip-path="url(#798a60f209)"><path fill="#ffffff" d="M 50.089844 9.601562 C 35.171875 9.601562 23.074219 21.6875 23.074219 36.59375 C 23.070312 39.902344 23.660156 43.105469 24.835938 46.199219 L 18.824219 57.460938 C 18.632812 57.820312 18.65625 58.160156 18.890625 58.488281 C 19.128906 58.8125 19.445312 58.945312 19.839844 58.878906 L 32.179688 56.804688 C 33.40625 57.890625 34.714844 58.859375 36.117188 59.703125 C 37.515625 60.550781 38.980469 61.265625 40.511719 61.84375 C 42.042969 62.421875 43.613281 62.859375 45.222656 63.152344 C 46.832031 63.445312 48.453125 63.59375 50.089844 63.589844 C 65.011719 63.589844 77.105469 51.503906 77.105469 36.59375 C 77.105469 21.699219 65 9.601562 50.089844 9.601562 Z M 50.171875 56.550781 C 48.867188 56.554688 47.574219 56.4375 46.292969 56.1875 C 45.011719 55.941406 43.765625 55.574219 42.558594 55.082031 C 41.347656 54.589844 40.199219 53.984375 39.109375 53.265625 C 38.019531 52.546875 37.011719 51.730469 36.082031 50.816406 L 28.691406 52.148438 C 28.296875 52.214844 27.984375 52.089844 27.746094 51.769531 C 27.511719 51.449219 27.480469 51.113281 27.660156 50.757812 L 31.390625 43.617188 C 30.511719 41.277344 30.089844 38.863281 30.121094 36.363281 C 30.246094 25.40625 39.125 16.640625 50.089844 16.640625 C 61.121094 16.640625 70.0625 25.574219 70.0625 36.59375 C 70.0625 47.605469 61.191406 56.507812 50.171875 56.550781 Z M 50.171875 56.550781 " fill-opacity="1" fill-rule="nonzero"/></g><path fill="#ffffff" d="M 47.269531 29.867188 L 46.394531 26.1875 C 46.347656 25.976562 46.273438 25.773438 46.183594 25.578125 C 46.089844 25.386719 45.976562 25.203125 45.847656 25.03125 C 45.714844 24.859375 45.566406 24.703125 45.402344 24.5625 C 45.238281 24.421875 45.0625 24.300781 44.871094 24.199219 C 44.683594 24.097656 44.484375 24.015625 44.277344 23.953125 C 44.070312 23.890625 43.855469 23.855469 43.640625 23.835938 C 43.425781 23.820312 43.210938 23.828125 42.996094 23.855469 C 42.785156 23.886719 42.574219 23.9375 42.371094 24.011719 L 40.359375 24.734375 C 40.035156 24.851562 39.734375 25.019531 39.464844 25.238281 C 39.195312 25.460938 38.96875 25.71875 38.785156 26.015625 C 38.605469 26.308594 38.476562 26.628906 38.402344 26.96875 C 38.328125 27.308594 38.3125 27.652344 38.355469 27.996094 C 39.058594 33.6875 42.28125 47.449219 57.117188 50.472656 C 57.71875 50.597656 58.304688 50.542969 58.875 50.3125 C 59.445312 50.085938 59.90625 49.71875 60.253906 49.214844 L 61.40625 47.546875 C 61.640625 47.214844 61.796875 46.847656 61.882812 46.449219 C 61.96875 46.054688 61.976562 45.65625 61.902344 45.253906 C 61.832031 44.855469 61.683594 44.484375 61.464844 44.144531 C 61.242188 43.800781 60.964844 43.515625 60.632812 43.285156 C 60.625 43.277344 60.617188 43.273438 60.613281 43.269531 L 58.078125 41.542969 C 57.800781 41.359375 57.503906 41.21875 57.183594 41.128906 C 56.867188 41.039062 56.539062 41 56.207031 41.015625 C 55.875 41.03125 55.554688 41.097656 55.246094 41.21875 C 54.933594 41.339844 54.652344 41.503906 54.394531 41.714844 C 54.140625 41.925781 53.859375 42.089844 53.554688 42.210938 C 53.246094 42.328125 52.925781 42.398438 52.597656 42.414062 C 52.265625 42.429688 51.941406 42.394531 51.625 42.308594 C 51.308594 42.21875 51.011719 42.082031 50.734375 41.898438 C 49.195312 40.859375 47.105469 39.136719 45.75 36.75 C 45.4375 36.203125 45.304688 35.613281 45.355469 34.984375 C 45.402344 34.355469 45.625 33.796875 46.019531 33.304688 L 46.671875 32.492188 C 46.96875 32.125 47.171875 31.710938 47.273438 31.25 C 47.378906 30.785156 47.375 30.328125 47.269531 29.867188 Z M 47.269531 29.867188 " fill-opacity="1" fill-rule="nonzero"/><g fill="#ffffff" fill-opacity="1"><g transform="translate(9.604683, 81.319207)"><g><path d="M 7.546875 -2.578125 C 7.984375 -2.578125 8.40625 -2.640625 8.8125 -2.765625 C 9.21875 -2.898438 9.515625 -3.023438 9.703125 -3.140625 L 10 -3.34375 L 11.203125 -0.921875 C 11.160156 -0.890625 11.101562 -0.847656 11.03125 -0.796875 C 10.96875 -0.742188 10.804688 -0.648438 10.546875 -0.515625 C 10.285156 -0.378906 10.007812 -0.257812 9.71875 -0.15625 C 9.425781 -0.0625 9.039062 0.0234375 8.5625 0.109375 C 8.09375 0.191406 7.609375 0.234375 7.109375 0.234375 C 5.953125 0.234375 4.851562 -0.0507812 3.8125 -0.625 C 2.769531 -1.195312 1.929688 -1.984375 1.296875 -2.984375 C 0.660156 -3.984375 0.34375 -5.0625 0.34375 -6.21875 C 0.34375 -7.09375 0.53125 -7.929688 0.90625 -8.734375 C 1.28125 -9.546875 1.773438 -10.238281 2.390625 -10.8125 C 3.015625 -11.382812 3.738281 -11.84375 4.5625 -12.1875 C 5.394531 -12.53125 6.242188 -12.703125 7.109375 -12.703125 C 7.910156 -12.703125 8.648438 -12.601562 9.328125 -12.40625 C 10.015625 -12.21875 10.5 -12.03125 10.78125 -11.84375 L 11.203125 -11.5625 L 10 -9.140625 C 9.925781 -9.191406 9.816406 -9.257812 9.671875 -9.34375 C 9.535156 -9.4375 9.253906 -9.550781 8.828125 -9.6875 C 8.410156 -9.832031 7.984375 -9.90625 7.546875 -9.90625 C 6.859375 -9.90625 6.242188 -9.789062 5.703125 -9.5625 C 5.160156 -9.34375 4.726562 -9.050781 4.40625 -8.6875 C 4.09375 -8.332031 3.851562 -7.941406 3.6875 -7.515625 C 3.519531 -7.097656 3.4375 -6.675781 3.4375 -6.25 C 3.4375 -5.300781 3.789062 -4.453125 4.5 -3.703125 C 5.207031 -2.953125 6.222656 -2.578125 7.546875 -2.578125 Z M 7.546875 -2.578125 "/></g></g></g><g fill="#ffffff" fill-opacity="1"><g transform="translate(20.994781, 81.319207)"><g><path d="M 0.90625 0 L 0.90625 -13 L 3.578125 -13 L 3.578125 -6.9375 L 3.609375 -6.9375 C 4.304688 -7.632812 5.050781 -7.984375 5.84375 -7.984375 C 6.21875 -7.984375 6.59375 -7.929688 6.96875 -7.828125 C 7.351562 -7.734375 7.71875 -7.578125 8.0625 -7.359375 C 8.414062 -7.148438 8.695312 -6.851562 8.90625 -6.46875 C 9.125 -6.082031 9.234375 -5.628906 9.234375 -5.109375 L 9.234375 0 L 6.5625 0 L 6.5625 -4.390625 C 6.5625 -4.785156 6.429688 -5.132812 6.171875 -5.4375 C 5.921875 -5.75 5.585938 -5.90625 5.171875 -5.90625 C 4.765625 -5.90625 4.394531 -5.75 4.0625 -5.4375 C 3.738281 -5.125 3.578125 -4.773438 3.578125 -4.390625 L 3.578125 0 Z M 0.90625 0 "/></g></g></g><g fill="#ffffff" fill-opacity="1"><g transform="translate(30.993261, 81.319207)"><g><path d="M 1.4375 -0.953125 C 0.707031 -1.742188 0.34375 -2.710938 0.34375 -3.859375 C 0.34375 -5.015625 0.707031 -5.988281 1.4375 -6.78125 C 2.164062 -7.582031 3.085938 -7.984375 4.203125 -7.984375 C 5.234375 -7.984375 6.082031 -7.660156 6.75 -7.015625 L 6.75 -7.765625 L 9.421875 -7.765625 L 9.421875 0 L 6.78125 0 L 6.78125 -0.875 L 6.75 -0.875 C 6.082031 -0.132812 5.234375 0.234375 4.203125 0.234375 C 3.085938 0.234375 2.164062 -0.160156 1.4375 -0.953125 Z M 3.703125 -5.1875 C 3.359375 -4.84375 3.1875 -4.40625 3.1875 -3.875 C 3.1875 -3.34375 3.351562 -2.90625 3.6875 -2.5625 C 4.019531 -2.226562 4.457031 -2.0625 5 -2.0625 C 5.53125 -2.0625 5.960938 -2.226562 6.296875 -2.5625 C 6.640625 -2.90625 6.8125 -3.34375 6.8125 -3.875 C 6.8125 -4.40625 6.632812 -4.84375 6.28125 -5.1875 C 5.9375 -5.53125 5.507812 -5.703125 5 -5.703125 C 4.488281 -5.703125 4.054688 -5.53125 3.703125 -5.1875 Z M 3.703125 -5.1875 "/></g></g></g><g fill="#ffffff" fill-opacity="1"><g transform="translate(41.21861, 81.319207)"><g><path d="M 1.359375 -7.765625 L 1.359375 -10.640625 L 4.03125 -10.640625 L 4.03125 -7.765625 L 5.671875 -7.765625 L 5.671875 -5.71875 L 4.03125 -5.71875 L 4.03125 -3.25 C 4.03125 -2.53125 4.234375 -2.171875 4.640625 -2.171875 C 4.742188 -2.171875 4.847656 -2.191406 4.953125 -2.234375 C 5.066406 -2.273438 5.15625 -2.316406 5.21875 -2.359375 L 5.3125 -2.421875 L 5.96875 -0.25 C 5.394531 0.0703125 4.742188 0.234375 4.015625 0.234375 C 3.503906 0.234375 3.066406 0.144531 2.703125 -0.03125 C 2.335938 -0.207031 2.0625 -0.441406 1.875 -0.734375 C 1.695312 -1.035156 1.566406 -1.347656 1.484375 -1.671875 C 1.398438 -2.003906 1.359375 -2.359375 1.359375 -2.734375 L 1.359375 -5.71875 L 0.234375 -5.71875 L 0.234375 -7.765625 Z M 1.359375 -7.765625 "/></g></g></g><g fill="#ffffff" fill-opacity="1"><g transform="translate(47.193498, 81.319207)"><g><path d="M 8.125 -12.484375 L 8.125 -9.984375 L 3.75 -9.984375 L 3.75 -7.5 L 7.796875 -7.5 L 7.796875 -5 L 3.75 -5 L 3.75 0 L 0.90625 0 L 0.90625 -12.484375 Z M 8.125 -12.484375 "/></g></g></g><g fill="#ffffff" fill-opacity="1"><g transform="translate(55.770105, 81.319207)"><g><path d="M 0.90625 0 L 0.90625 -13 L 3.578125 -13 L 3.578125 0 Z M 0.90625 0 "/></g></g></g><g fill="#ffffff" fill-opacity="1"><g transform="translate(60.262613, 81.319207)"><g><path d="M 1.640625 -0.921875 C 0.773438 -1.691406 0.34375 -2.675781 0.34375 -3.875 C 0.34375 -5.070312 0.789062 -6.054688 1.6875 -6.828125 C 2.59375 -7.597656 3.703125 -7.984375 5.015625 -7.984375 C 6.316406 -7.984375 7.414062 -7.59375 8.3125 -6.8125 C 9.207031 -6.039062 9.65625 -5.0625 9.65625 -3.875 C 9.65625 -2.6875 9.21875 -1.703125 8.34375 -0.921875 C 7.46875 -0.148438 6.359375 0.234375 5.015625 0.234375 C 3.628906 0.234375 2.503906 -0.148438 1.640625 -0.921875 Z M 3.703125 -5.1875 C 3.359375 -4.84375 3.1875 -4.40625 3.1875 -3.875 C 3.1875 -3.34375 3.351562 -2.90625 3.6875 -2.5625 C 4.019531 -2.226562 4.457031 -2.0625 5 -2.0625 C 5.53125 -2.0625 5.960938 -2.226562 6.296875 -2.5625 C 6.640625 -2.90625 6.8125 -3.34375 6.8125 -3.875 C 6.8125 -4.40625 6.632812 -4.84375 6.28125 -5.1875 C 5.9375 -5.53125 5.507812 -5.703125 5 -5.703125 C 4.488281 -5.703125 4.054688 -5.53125 3.703125 -5.1875 Z M 3.703125 -5.1875 "/></g></g></g><g fill="#ffffff" fill-opacity="1"><g transform="translate(70.185447, 81.319207)"><g><path d="M 1.4375 -0.953125 C 0.707031 -1.742188 0.34375 -2.710938 0.34375 -3.859375 C 0.34375 -5.015625 0.707031 -5.988281 1.4375 -6.78125 C 2.164062 -7.582031 3.085938 -7.984375 4.203125 -7.984375 C 5.234375 -7.984375 6.082031 -7.660156 6.75 -7.015625 L 6.75 -7.765625 L 9.421875 -7.765625 L 9.421875 0 L 6.78125 0 L 6.78125 -0.875 L 6.75 -0.875 C 6.082031 -0.132812 5.234375 0.234375 4.203125 0.234375 C 3.085938 0.234375 2.164062 -0.160156 1.4375 -0.953125 Z M 3.703125 -5.1875 C 3.359375 -4.84375 3.1875 -4.40625 3.1875 -3.875 C 3.1875 -3.34375 3.351562 -2.90625 3.6875 -2.5625 C 4.019531 -2.226562 4.457031 -2.0625 5 -2.0625 C 5.53125 -2.0625 5.960938 -2.226562 6.296875 -2.5625 C 6.640625 -2.90625 6.8125 -3.34375 6.8125 -3.875 C 6.8125 -4.40625 6.632812 -4.84375 6.28125 -5.1875 C 5.9375 -5.53125 5.507812 -5.703125 5 -5.703125 C 4.488281 -5.703125 4.054688 -5.53125 3.703125 -5.1875 Z M 3.703125 -5.1875 "/></g></g></g><g fill="#ffffff" fill-opacity="1"><g transform="translate(80.410796, 81.319207)"><g><path d="M 1.359375 -7.765625 L 1.359375 -10.640625 L 4.03125 -10.640625 L 4.03125 -7.765625 L 5.671875 -7.765625 L 5.671875 -5.71875 L 4.03125 -5.71875 L 4.03125 -3.25 C 4.03125 -2.53125 4.234375 -2.171875 4.640625 -2.171875 C 4.742188 -2.171875 4.847656 -2.191406 4.953125 -2.234375 C 5.066406 -2.273438 5.15625 -2.316406 5.21875 -2.359375 L 5.3125 -2.421875 L 5.96875 -0.25 C 5.394531 0.0703125 4.742188 0.234375 4.015625 0.234375 C 3.503906 0.234375 3.066406 0.144531 2.703125 -0.03125 C 2.335938 -0.207031 2.0625 -0.441406 1.875 -0.734375 C 1.695312 -1.035156 1.566406 -1.347656 1.484375 -1.671875 C 1.398438 -2.003906 1.359375 -2.359375 1.359375 -2.734375 L 1.359375 -5.71875 L 0.234375 -5.71875 L 0.234375 -7.765625 Z M 1.359375 -7.765625 "/></g></g></g></svg>